<?xml version="1.0" standalone="no"?>
<!DOCTYPE svg PUBLIC "-//W3C//DTD SVG 20010904//EN"
 "http://www.w3.org/TR/2001/REC-SVG-20010904/DTD/svg10.dtd">
<svg version="1.0" xmlns="http://www.w3.org/2000/svg"
 width="512.000000pt" height="512.000000pt" viewBox="0 0 512.000000 512.000000"
 preserveAspectRatio="xMidYMid meet">
<metadata>
Created by potrace 1.15, written by Peter Selinger 2001-2017
</metadata>
<g transform="translate(0.000000,512.000000) scale(0.100000,-0.100000)"
fill="#000000" stroke="none">
<path d="M2240 5104 c-820 -115 -1546 -630 -1952 -1384 -141 -261 -244 -593
-279 -899 -18 -158 -7 -516 21 -670 196 -1102 1101 -1979 2205 -2136 134 -19
516 -19 650 0 457 65 893 255 1265 553 381 304 697 756 847 1212 95 287 123
463 123 780 0 316 -28 492 -121 775 -216 651 -719 1224 -1344 1530 -240 117
-431 180 -690 226 -158 29 -564 36 -725 13z m615 -600 c362 -49 701 -194 970
-414 93 -76 247 -237 316 -330 279 -376 419 -871 381 -1352 -23 -291 -84 -514
-208 -763 -187 -376 -463 -652 -839 -839 -249 -124 -472 -185 -762 -208 -483
-38 -976 101 -1353 381 -93 69 -254 223 -330 316 -174 212 -307 481 -373 755
-44 179 -59 309 -59 510 0 338 57 596 197 886 190 396 483 689 879 879 368
177 759 236 1181 179z"/>
<path d="M2250 4131 l0 -188 -52 -7 c-115 -15 -309 -95 -429 -177 -171 -116
-292 -282 -334 -462 -22 -92 -20 -276 5 -371 52 -205 176 -344 402 -451 84
-40 260 -92 371 -110 l37 -6 0 -304 c0 -203 -3 -305 -10 -305 -6 0 -34 12 -62
26 -113 57 -188 161 -227 316 l-19 73 -281 3 c-154 1 -281 -1 -281 -5 0 -5 7
-51 15 -103 35 -230 128 -406 303 -570 141 -134 318 -233 496 -277 l66 -16 2
-191 3 -191 268 -3 267 -2 0 189 0 190 38 6 c253 41 435 130 602 295 113 111
179 211 223 338 26 74 31 106 34 212 6 154 -11 243 -66 355 -113 229 -364 375
-736 428 l-90 13 -3 282 c-1 155 1 282 6 282 5 0 30 -7 56 -16 98 -34 208
-173 223 -283 l6 -41 280 0 280 0 -7 80 c-22 244 -137 449 -338 600 -136 102
-285 168 -439 192 l-79 12 0 188 0 188 -265 0 -265 0 0 -189z m10 -972 l0
-232 -46 7 c-55 7 -130 39 -163 69 -57 53 -76 149 -42 222 24 53 100 119 165
144 93 36 86 52 86 -210z m675 -914 c182 -51 260 -212 169 -346 -45 -67 -166
-133 -276 -153 l-38 -7 0 267 0 266 48 -6 c26 -4 70 -13 97 -21z"/>
</g>
</svg>
